<svg xmlns="http://www.w3.org/2000/svg" viewBox="0 0 32 32" id="cancel-delivery">
  <path fill="#ff7043" d="M30,5V19.17a3,3,0,0,1-.88,2.12l-1.25,1.53A5.69,5.69,0,0,1,28,24a6,6,0,0,1-5.81,6H22a6,6,0,0,1-4.46-2H5a3,3,0,0,1-3-3V10A3,3,0,0,1,3.07,7.73l0-.05L8.82,2.62l.08-.06A2.94,2.94,0,0,1,10.64,2H27a3,3,0,0,1,3,3Z"></path>
  <path fill="#f4511e" d="M30,5V19.17a3,3,0,0,1-.88,2.12l-1.25,1.53A5.69,5.69,0,0,1,28,24a5.94,5.94,0,0,1-1.32,3.74l-7.34-1.6V11l2.18-2.31,6.91-6.35A3,3,0,0,1,30,5Z"></path>
  <path fill="#d84315" d="M28,24a6,6,0,0,1-5.81,6H22a6,6,0,0,1-4.46-2H5a3,3,0,0,1-3-3V10A3,3,0,0,1,5,7H20a3,3,0,0,1,3,3v8.09A6,6,0,0,1,28,24Z"></path>
  <path fill="#bf360c" d="M22.19,30H22a6,6,0,0,1-4.46-2H5a3,3,0,0,1-3-3V24H17l4.24,1Z"></path>
  <circle cx="22" cy="24" r="6" fill="#ff8a65"></circle>
  <path fill="#ffccbc" d="M23.31 2L15.85 8.26v5.59a1 1 0 0 1-.61.92.91.91 0 0 1-.39.08 1 1 0 0 1-.7-.28L12.93 13l-2.24 1.56a1 1 0 0 1-1 .07c-.33-.17-.37-.17-.37-.55V8s0 0 0 0a.71.71 0 0 1 0-.21.85.85 0 0 1 0-.17l.1-.14.13-.18 0 0 5.71-5A1 1 0 0 1 16 2zM24 24.54L23.41 24l.56-.57A1 1 0 0 0 22.54 22l-.56.58L21.41 22A1 1 0 0 0 20 23.46l.58.56-.56.57a1 1 0 0 0 0 1.41 1 1 0 0 0 .7.29 1 1 0 0 0 .71-.3l.56-.58.57.56a1 1 0 0 0 .7.28A1 1 0 0 0 24 26 1 1 0 0 0 24 24.54z"></path>
  <path fill="#301f13" d="M27,2H10.64a2.94,2.94,0,0,0-1.74.56l-.08.06L3.1,7.68l0,0A3,3,0,0,0,2,10V25a3,3,0,0,0,3,3H17.54A6,6,0,0,0,28,24a5.79,5.79,0,0,0-.12-1.19l1.24-1.52A3,3,0,0,0,30,19.17V5A3,3,0,0,0,27,2ZM21.48,7.41A2.89,2.89,0,0,0,20,7H17.93l3.39-3h4ZM18.3,4,14.91,7h-2l3.39-3ZM11,9h3v2.66l-.38-.37a1,1,0,0,0-1.28-.11L11,12.12Zm-.9-4.84A1,1,0,0,1,10.64,4H13.3L9.91,7h-3ZM5,26a1,1,0,0,1-1-1H5a1,1,0,1,0,0-2H4V10A1,1,0,0,1,5,9H9v5a1,1,0,0,0,.54.89,1,1,0,0,0,1-.07l2.24-1.56,1.49,1.46A1,1,0,0,0,15,15a.91.91,0,0,0,.39-.08A1,1,0,0,0,16,14V9h4a1,1,0,0,1,1,1v8.09A6,6,0,0,0,16.09,23H8a1,1,0,0,0,0,2h8.06a6.67,6.67,0,0,0,.26,1Zm17,2a4,4,0,1,1,4-4A4,4,0,0,1,22,28Zm6-8.83a1.12,1.12,0,0,1-.36.78l-.63.76a6,6,0,0,0-4-2.62V10a3,3,0,0,0-.21-1.08l5-4.47A1,1,0,0,1,28,5ZM27,8.41a1,1,0,0,1-.23,1.4l-1.42,1a1,1,0,0,1-.58.19,1,1,0,0,1-.82-.42,1,1,0,0,1,.24-1.39l1.42-1A1,1,0,0,1,27,8.41ZM24,24.54A1,1,0,0,1,24,26a1,1,0,0,1-.71.3,1,1,0,0,1-.7-.28L22,25.41l-.56.58a1,1,0,0,1-.71.3,1,1,0,0,1-.7-.29,1,1,0,0,1,0-1.41l.56-.57L20,23.46A1,1,0,0,1,21.41,22l.57.56.56-.58A1,1,0,0,1,24,23.41l-.56.57Z"></path>
</svg>
